<?xml version="1.0" encoding="utf-8"?>
<!-- Generator: Adobe Illustrator 19.0.0, SVG Export Plug-In . SVG Version: 6.00 Build 0)  -->
<svg version="1.1" id="Capa_1" xmlns="http://www.w3.org/2000/svg" xmlns:xlink="http://www.w3.org/1999/xlink" x="0px" y="0px"
	 viewBox="0 0 1080 1080" style="enable-background:new 0 0 1080 1080;" xml:space="preserve">
<style type="text/css">
	.st0{stroke:#FFFFFF;stroke-width:10;stroke-miterlimit:10;}
	.st1{display:none;}
	.st2{display:inline;fill:#FFFFFF;stroke:#FFFFFF;stroke-miterlimit:10;}
	.st3{fill:#FFFFFF;stroke:#FFFFFF;stroke-miterlimit:10;}
</style>
<g id="Capa_3">
	<polygon id="XMLID_4_" class="st0" points="82,278.3 536,16.6 990,278.3 990,801.7 536,1063.4 82,801.7 	"/>
</g>
<g id="Capa_2">
	<g id="XMLID_3_" class="st1">
		<polygon id="XMLID_8_" class="st2" points="204.4,298.1 554.2,96 903.5,297.8 553.7,499.8 		"/>
		<polygon id="XMLID_7_" class="st2" points="192.5,718.8 192.5,315.5 543.5,516.9 543.5,920.4 		"/>
		<polygon id="XMLID_6_" class="st2" points="561.5,516.9 911.5,314.9 911.5,718.8 561.5,921 		"/>
	</g>
	<g id="XMLID_371_">
		<path id="XMLID_2_" class="st3" d="M176.5,519.3L176.5,519.3v-55.5c0-26.1,28-42.5,50.8-29.8l0,0l31.2,18.3
			c10.6,6.2,17.1,17.7,16.8,30l-0.7,36.9l0,0c0,25.2-27.3,40.9-49.1,28.3L176.5,519.3"/>
		<path id="XMLID_5_" class="st3" d="M365.8,742.7l1.1-280.2l49.7,28.4l49.6,28.5l49.6,28.5v56.9v56.9v56.9v56.9v56.9v57v57l0,0
			c0,25.3-27.4,41.2-49.4,28.6l-0.2-0.1L417,946.4l-49.6-28.5l-49.6-28.5l-49.6-28.5l-49.5-28.5L167.8,804l0,0
			c-31.4-17.6-50.9-50.8-50.9-86.8V547.9l52.8,31.3l-0.8-0.5l0.8,0.5l45.3,25.5l0,0l0,0v57.1l0,0l0.6,22.1
			c0.6,21.5,12.5,41.1,31.2,51.6l20.3,11.5l65.8,33.7c14.9,7.7,32.7-3.2,32.7-20L365.8,742.7z"/>
	</g>
	<g id="XMLID_372_">
		<path id="XMLID_303_" class="st3" d="M906.2,348.8l-48.7,28.4l-49.1,28.4L759,434.1l-49.4,28.4l-49.5,28.4l-49.5,28.5l-10.4,6
			C575.9,539.2,561,565.1,561,593v68.7v56.9v56.9v56.9v57v57l0,0c0,25.3,27.4,41.2,49.4,28.6l0.2-0.1l45.3-26.1
			c2.6-1.5,4.2-4.3,4.2-7.3v-52.1v-56.9l0,0c0-35.2,18.9-67.8,49.4-85.3l0.2-0.1l49.6-28.5l47.8-28.5l0,0
			c21.1-12.5,47.8,2.6,47.8,27.1v1.3v56.9v42.3c0,6.5,7,10.6,12.7,7.3l37.1-21.2l45.5-26c2.6-1.5,4.3-4.3,4.3-7.3V335.2
			c0-6.6-7.1-10.6-12.8-7.3L906.2,348.8z M806.9,633.2l-48.7,28.5l-49.1,28.5l-36.6,21.1c-5.6,3.3-12.7-0.8-12.7-7.3l0.1-42.3l0,0
			c0-35.2,18.9-67.7,49.4-85.3l0.2-0.1l49.6-28.4l49.5-28.5l0,0c20.7-12.3,46.8,3.1,46,27.1v1.3v52.1c0,3-1.6,5.7-4.1,7.3
			L806.9,633.2z"/>
	</g>
	<g id="XMLID_717_">
		<path id="XMLID_27_" class="st3" d="M635.9,123l-49.3,28.5l-39-22.6c-6.4-3.7-14.4-3.7-20.8,0l-38.9,22.4l-49.4-28.7l49.3-28.5
			l31.5-18.2c11-6.3,24.5-6.3,35.5,0l31.7,18.4L635.9,123z"/>
		<path id="XMLID_325_" class="st3" d="M488.4,379.7l-49.3,28.4l-49.3,28.4l-49.4-28.7L291,379.1l-49.4-28.7l-49.4-28.7l-4.2-2.4
			c-20.1-11.7-20.1-40.7,0.1-52.3l4-2.3l49.2-28.4l49.2-28.4l49.3-28.4l49.3-28.4l49.4,28.7l49.4,28.7l-49.3,28.4l-49.3,28.5
			L340,293.8l49.4,28.7L439,351L488.4,379.7z"/>
		<path id="XMLID_382_" class="st3" d="M883.5,266.5c21.9,12.7,21.9,44.4-0.1,57l0,0L834,352l-49.3,28.5L735.4,409l-49.3,28.5
			l-49.5-28.7L587.2,380l49.3-28.5l98.6-56.9l-49.5-28.7l-49.4-28.7l-49.4-28.7l49.3-28.5l49.3-28.5l49.5,28.7l49.5,28.7l49.5,28.7
			l49.5,28.7L883.5,266.5z"/>
		<path id="XMLID_419_" class="st3" d="M636.3,294.4L587,322.8l-33.2,19.1c-10,5.8-22.3,5.7-32.3,0l-33.3-19.3l-49.4-28.7l49.3-28.4
			l36.2-20.9c8.1-4.7,18.1-4.7,26.2,0l36.3,21.1L636.3,294.4z"/>
		<path id="XMLID_60_" class="st3" d="M636.7,465.8l-49.3,28.4L561,509.5c-14.2,8.2-31.6,8.2-45.8-0.1L488.7,494l-49.4-28.7
			l49.3-28.4l33.4,19.4c9.9,5.8,22.2,5.8,32.1,0l33.2-19.2L636.7,465.8z"/>
	</g>
</g>
</svg>
